{
    "asset" : {
        "generator" : "Khronos glTF Blender I/O v3.4.50",
        "version" : "2.0"
    },
    "scene" : 0,
    "scenes" : [
        {
            "name" : "Scene",
            "nodes" : [
                0
            ]
        }
    ],
    "nodes" : [
        {
            "mesh" : 0,
            "name" : "mpm_f15__Magis_Puppy",
            "rotation" : [
                0.70710688829422,
                0,
                0,
                0.7071066498756409
            ]
        }
    ],
    "materials" : [
        {
            "doubleSided" : true,
            "name" : "mpm_f15_Magis_Puppy_1_orange",
            "pbrMetallicRoughness" : {
                "baseColorFactor" : [
                    0.8591740131378174,
                    0.17013800144195557,
                    0.026549000293016434,
                    1
                ],
                "metallicFactor" : 0.16853933036327362,
                "roughnessFactor" : 0.11460672318935394
            }
        }
    ],
    "meshes" : [
        {
            "name" : "mpm_f15__Magis_Puppy",
            "primitives" : [
                {
                    "attributes" : {
                        "POSITION" : 0,
                        "TEXCOORD_0" : 1,
                        "NORMAL" : 2
                    },
                    "indices" : 3,
                    "material" : 0
                }
            ]
        }
    ],
    "accessors" : [
        {
            "bufferView" : 0,
            "componentType" : 5126,
            "count" : 5835,
            "max" : [
                1.2127169370651245,
                0.6288769841194153,
                0.0006729960441589355
            ],
            "min" : [
                -0.8750468492507935,
                -0.6288864016532898,
                -1.6664345264434814
            ],
            "type" : "VEC3"
        },
        {
            "bufferView" : 1,
            "componentType" : 5126,
            "count" : 5835,
            "type" : "VEC2"
        },
        {
            "bufferView" : 2,
            "componentType" : 5126,
            "count" : 5835,
            "type" : "VEC3"
        },
        {
            "bufferView" : 3,
            "componentType" : 5123,
            "count" : 30048,
            "type" : "SCALAR"
        }
    ],
    "bufferViews" : [
        {
            "buffer" : 0,
            "byteLength" : 70020,
            "byteOffset" : 0,
            "target" : 34962
        },
        {
            "buffer" : 0,
            "byteLength" : 46680,
            "byteOffset" : 70020,
            "target" : 34962
        },
        {
            "buffer" : 0,
            "byteLength" : 70020,
            "byteOffset" : 116700,
            "target" : 34962
        },
        {
            "buffer" : 0,
            "byteLength" : 60096,
            "byteOffset" : 186720,
            "target" : 34963
        }
    ],
    "buffers" : [
        {
            "byteLength" : 246816,
            "uri" : "data:application/octet-stream;base64,"
        }
    ]
}
